<svg xmlns="http://www.w3.org/2000/svg" width="169.288" height="62.058" viewBox="0 0 169.288 62.058">
  <g id="Group_40476" data-name="Group 40476" transform="translate(-58.515 -17.971)">
    <g id="Group_40386" data-name="Group 40386">
      <path id="Growth_Graphers" data-name="Growth Graphers" d="M9.131.276c4.508,0,7.5-2.668,7.5-8.211h-6.9v1.817h4.6c0,2.53-2.346,4.462-5.2,4.462A6.076,6.076,0,0,1,3.2-7.889a6.137,6.137,0,0,1,5.934-6.3A5.907,5.907,0,0,1,13.018-12.7l1.449-1.357a7.862,7.862,0,0,0-5.336-2.07A8.109,8.109,0,0,0,1.1-7.889,8.065,8.065,0,0,0,9.131.276Zm16.9-11.293c-1.426,0-2.461.828-3.013,2.714v-2.438H21V0h2.024V-3.933c0-2.829.851-5.152,2.99-5.152a3.718,3.718,0,0,1,1.564.368L27.9-10.6A4.056,4.056,0,0,0,26.036-11.017ZM36.248.276a5.507,5.507,0,0,0,5.635-5.658,5.487,5.487,0,0,0-5.635-5.635,5.469,5.469,0,0,0-5.612,5.635A5.488,5.488,0,0,0,36.248.276Zm0-1.886A3.609,3.609,0,0,1,32.66-5.382a3.6,3.6,0,0,1,3.588-3.749,3.626,3.626,0,0,1,3.634,3.749A3.631,3.631,0,0,1,36.248-1.61Zm21-1.5-2.76-7.636H52.532L49.8-3.105l-2.737-7.636H44.9L48.99,0h1.656L53.5-7.981,56.465,0h1.679l4-10.741H59.984Zm11.661-7.636v-4.048h-2v4.048H64.975v1.725h1.932V0h2V-9.016h2.323v-1.725Zm11.96-.276A4.139,4.139,0,0,0,77.3-9.108v-7.475h-2V0h2V-5.819a3.1,3.1,0,0,1,3.289-3.22,2.653,2.653,0,0,1,2.6,2.944V0h2V-6.21C85.215-9.223,83.536-11.017,80.868-11.017ZM9.131,24.276c4.508,0,7.5-2.668,7.5-8.211h-6.9v1.817h4.6c0,2.53-2.346,4.462-5.2,4.462A6.076,6.076,0,0,1,3.2,16.111a6.137,6.137,0,0,1,5.934-6.3A5.907,5.907,0,0,1,13.018,11.3l1.449-1.357a7.862,7.862,0,0,0-5.336-2.07A8.109,8.109,0,0,0,1.1,16.111,8.065,8.065,0,0,0,9.131,24.276Zm16.9-11.293c-1.426,0-2.461.828-3.013,2.714V13.259H21V24h2.024V20.067c0-2.829.851-5.152,2.99-5.152a3.718,3.718,0,0,1,1.564.368L27.9,13.4A4.056,4.056,0,0,0,26.036,12.983Zm13.8,1.955A4.318,4.318,0,0,0,36,12.983a5.416,5.416,0,0,0-5.359,5.635A5.435,5.435,0,0,0,35.9,24.276a4.468,4.468,0,0,0,3.933-2.185V24h2V13.259h-2ZM36.2,22.39a3.671,3.671,0,0,1-3.542-3.772,3.662,3.662,0,0,1,3.519-3.749,3.76,3.76,0,0,1,3.657,3.749A3.7,3.7,0,0,1,36.2,22.39Zm16.79-9.407a4.464,4.464,0,0,0-3.818,1.955V13.259h-2V29.221h2v-6.9a4.318,4.318,0,0,0,3.841,1.955,5.335,5.335,0,0,0,5.359-5.635A5.386,5.386,0,0,0,52.992,12.983Zm-.184,9.407a3.672,3.672,0,0,1-3.634-3.726,3.594,3.594,0,1,1,7.176,0A3.56,3.56,0,0,1,52.808,22.39Zm15.755-9.407A4.139,4.139,0,0,0,65,14.892V7.417H63V24h2V18.181a3.1,3.1,0,0,1,3.289-3.22,2.653,2.653,0,0,1,2.6,2.944V24h2V17.79C72.91,14.777,71.231,12.983,68.563,12.983Zm19.642,5.612c0-3.4-2.277-5.612-5.336-5.612a5.376,5.376,0,0,0-5.52,5.612,5.434,5.434,0,0,0,5.52,5.681A5.359,5.359,0,0,0,87.791,21.4l-1.725-.69a3.524,3.524,0,0,1-3.128,1.679,3.284,3.284,0,0,1-3.519-2.9h8.74C88.182,19.193,88.205,18.894,88.205,18.595Zm-8.763-.828a3.208,3.208,0,0,1,3.427-2.9,3.176,3.176,0,0,1,3.335,2.9Zm18.377-4.784c-1.426,0-2.461.828-3.013,2.714V13.259H92.782V24h2.024V20.067c0-2.829.851-5.152,2.99-5.152a3.718,3.718,0,0,1,1.564.368l.322-1.886A4.056,4.056,0,0,0,97.819,12.983Zm8.717,11.293c2.231,0,4.163-1.265,4.163-3.266,0-1.219-.575-2.553-2.806-3.1l-1.587-.391c-.69-.161-1.38-.552-1.38-1.288a1.571,1.571,0,0,1,1.725-1.495,1.614,1.614,0,0,1,1.725,1.38h1.932c0-2.162-1.886-3.128-3.7-3.128-2.162,0-3.68,1.4-3.68,3.174,0,1.725,1.035,2.6,2.829,3.082l1.472.345c.851.184,1.472.6,1.472,1.4,0,.874-.8,1.541-2.162,1.541-1.311,0-2.116-.759-2.139-1.679h-1.863A3.759,3.759,0,0,0,106.536,24.276Z" transform="translate(117.104 46)" fill="#fff"/>
      <path id="Path_15" data-name="Path 15" d="M1908.822-366.9s2.258,15.715,4.632,12.731,6.673-11.708,9.416-11.606c2.255-.052,11.394,12.569,13.506,11.606s5.33-.723,9.779-19.514c2.328-11.664,3.946-28.174,3.946-28.174l-3.5-.844s5.24-8.609,5.572-9.957,2.838,8.611,3.257,9.957-4.06.844-4.06.844" transform="translate(-1848.822 432.284)" fill="none" stroke="#fff" stroke-width="3"/>
    </g>
  </g>
</svg>
